<svg xmlns="http://www.w3.org/2000/svg" width="1200" height="630" viewBox="0 0 1200 630" role="img" aria-label="Aurora Portfolio Lab social card">
  <defs>
    <linearGradient id="bg" x1="0" y1="0" x2="1" y2="1">
      <stop offset="0%" stop-color="#0b0a12"/>
      <stop offset="100%" stop-color="#15131f"/>
    </linearGradient>
    <linearGradient id="aurora" x1="0" y1="0" x2="1" y2="0">
      <stop offset="0%" stop-color="#4de1d0"/>
      <stop offset="55%" stop-color="#8b7bf7"/>
      <stop offset="100%" stop-color="#f5c451"/>
    </linearGradient>
  </defs>
  <rect width="1200" height="630" fill="url(#bg)"/>
  <circle cx="220" cy="40" r="260" fill="#8b7bf7" fill-opacity="0.16"/>
  <circle cx="1060" cy="60" r="220" fill="#4de1d0" fill-opacity="0.12"/>
  <g transform="translate(90,100)">
    <rect x="0" y="0" width="1020" height="430" rx="28" fill="#1c1a28" stroke="rgba(255,255,255,0.07)"/>
    <text x="52" y="88" fill="url(#aurora)" style="font: 800 52px Inter, system-ui, sans-serif; letter-spacing: -0.02em;">Aurora Portfolio Lab</text>
    <text x="52" y="146" fill="#edeef4" style="font: 500 28px Inter, system-ui, sans-serif;">Live market data • Risk metrics • AI news sentiment</text>
    <g transform="translate(52,210)">
      <rect x="0" y="0" width="640" height="170" rx="18" fill="#15131f" stroke="rgba(255,255,255,0.07)"/>
      <polyline points="30,130 130,115 220,95 320,105 420,76 520,55 610,35" fill="none" stroke="#16c784" stroke-width="5"/>
      <line x1="30" y1="130" x2="610" y2="130" stroke="rgba(255,255,255,0.12)"/>
      <text x="30" y="38" fill="#8b8ca6" style="font: 600 16px Inter, system-ui, sans-serif; letter-spacing: 0.09em; text-transform: uppercase;">Portfolio Growth</text>
    </g>
    <g transform="translate(730,210)">
      <rect x="0" y="0" width="238" height="78" rx="14" fill="#15131f" stroke="rgba(255,255,255,0.07)"/>
      <text x="18" y="30" fill="#8b8ca6" style="font: 600 12px Inter, system-ui, sans-serif; letter-spacing: 0.1em; text-transform: uppercase;">Return</text>
      <text x="18" y="62" fill="#16c784" style="font: 800 28px Inter, system-ui, sans-serif;">+15.87%</text>
      <rect x="0" y="92" width="238" height="78" rx="14" fill="#15131f" stroke="rgba(255,255,255,0.07)"/>
      <text x="18" y="122" fill="#8b8ca6" style="font: 600 12px Inter, system-ui, sans-serif; letter-spacing: 0.1em; text-transform: uppercase;">Max Drawdown</text>
      <text x="18" y="154" fill="#f5c451" style="font: 800 28px Inter, system-ui, sans-serif;">-12.4%</text>
    </g>
  </g>
</svg>
